<?xml version="1.0" encoding="utf-8"?>
<!-- Generator: Adobe Illustrator 17.1.0, SVG Export Plug-In . SVG Version: 6.00 Build 0)  -->
<!DOCTYPE svg PUBLIC "-//W3C//DTD SVG 1.1//EN" "http://www.w3.org/Graphics/SVG/1.1/DTD/svg11.dtd">
<svg version="1.1" id="Layer_1" xmlns="http://www.w3.org/2000/svg" xmlns:xlink="http://www.w3.org/1999/xlink" x="0px" y="0px"
	 viewBox="0 0 69 69" enable-background="new 0 0 69 69" xml:space="preserve">
<path fill="#FFFFFF" d="M69,58.8C69,64.4,64.4,69,58.8,69H10.2C4.6,69,0,64.4,0,58.8V10.2C0,4.6,4.6,0,10.2,0h48.5
	C64.4,0,69,4.6,69,10.2V58.8z"/>
<g>
	<path fill="#2CAF87" d="M46,22.5c-2.6,0.8-5,2-7.1,3.6c-2.1,1.5-4,3.4-5.5,5.5c-1-0.5-2.3-1.4-3.6-2.6c-3.5-3.1-5.8-7.2-6.7-12.1
		c3.3-2.1,7.2-3.4,11.4-3.4c6.6,0,12.5,3.1,16.4,7.8C49.5,21.5,47.8,21.9,46,22.5z"/>
	<path fill="#56BF9F" d="M26.9,32.5c1.4,1.2,2.8,2.2,3.9,2.8c-0.7,0.9-1.6,2-2.9,3.2c-3.4,3.1-7.6,4.8-12.5,5.2
		c-1.3-2.8-2.1-5.9-2.1-9.2c0-5.6,2.2-10.6,5.7-14.4c0.6,2.2,1.5,4.3,2.7,6.3C23.2,28.7,24.9,30.7,26.9,32.5z"/>
	<path fill="#56BF9F" d="M47.7,44.9c-1.1-2.5-2.6-4.7-4.4-6.6c-1.7-1.9-3.7-3.5-5.9-4.7c5.8-7.3,14.2-7.9,16-7.9
		c1.3,2.7,2,5.7,2,8.9c0,5.8-2.3,11-6.1,14.8C49,48,48.5,46.5,47.7,44.9z"/>
	<path fill="#2CAF87" d="M24.5,46c2.4-1.1,4.7-2.5,6.6-4.3c1.8-1.6,3-3.2,3.8-4.3C43.1,41.9,45,50,45.5,52.4c-3.2,2-7,3.1-11,3.1
		c-6.5,0-12.4-3-16.2-7.7C20.5,47.5,22.6,46.8,24.5,46z"/>
</g>
</svg>
