<?xml version="1.0" encoding="utf-8"?>
<!-- Generator: Adobe Illustrator 17.1.0, SVG Export Plug-In . SVG Version: 6.00 Build 0)  -->
<!DOCTYPE svg PUBLIC "-//W3C//DTD SVG 1.1//EN" "http://www.w3.org/Graphics/SVG/1.1/DTD/svg11.dtd">
<svg version="1.1" id="Layer_1" xmlns="http://www.w3.org/2000/svg" xmlns:xlink="http://www.w3.org/1999/xlink" x="0px" y="0px"
	 viewBox="0 0 960 1200" enable-background="new 0 0 960 1200" xml:space="preserve">
<rect x="15" y="17" fill="#FA746B" width="40" height="40"/>
<rect x="15" y="65" fill="#546A8F" width="40" height="40"/>
<rect x="15" y="113" fill="#FECE6C" width="40" height="40"/>
<rect x="15" y="161" fill="#FCF6EA" width="40" height="40"/>
<rect x="15" y="209" fill="#77C299" width="40" height="40"/>
<rect x="63" y="17" fill="#FA827A" width="40" height="40"/>
<rect x="63" y="65" fill="#65799A" width="40" height="40"/>
<rect x="63" y="113" fill="#FED37B" width="40" height="40"/>
<rect x="63" y="161" fill="#FCF7EC" width="40" height="40"/>
<rect x="63" y="209" fill="#85C8A3" width="40" height="40"/>
<rect x="111" y="17" fill="#FB9089" width="40" height="40"/>
<rect x="111" y="65" fill="#7688A5" width="40" height="40"/>
<rect x="111" y="113" fill="#FED889" width="40" height="40"/>
<rect x="111" y="161" fill="#FDF8EE" width="40" height="40"/>
<rect x="111" y="209" fill="#92CEAD" width="40" height="40"/>
<rect x="159" y="17" fill="#FB9E97" width="40" height="40"/>
<rect x="159" y="65" fill="#8797B1" width="40" height="40"/>
<rect x="159" y="113" fill="#FEDD98" width="40" height="40"/>
<rect x="159" y="161" fill="#FDF9F0" width="40" height="40"/>
<rect x="159" y="209" fill="#A0D4B8" width="40" height="40"/>
<rect x="207" y="17" fill="#FCACA6" width="40" height="40"/>
<rect x="207" y="65" fill="#98A6BC" width="40" height="40"/>
<rect x="207" y="113" fill="#FEE2A7" width="40" height="40"/>
<rect x="207" y="161" fill="#FDFAF2" width="40" height="40"/>
<rect x="207" y="209" fill="#ADDAC2" width="40" height="40"/>
<rect x="255" y="17" fill="#FCB9B5" width="40" height="40"/>
<rect x="255" y="65" fill="#A9B4C7" width="40" height="40"/>
<rect x="255" y="113" fill="#FEE6B5" width="40" height="40"/>
<rect x="255" y="161" fill="#FDFAF4" width="40" height="40"/>
<rect x="255" y="209" fill="#BBE0CC" width="40" height="40"/>
<rect x="303" y="17" fill="#FDC7C4" width="40" height="40"/>
<rect x="303" y="65" fill="#BBC3D2" width="40" height="40"/>
<rect x="303" y="113" fill="#FFEBC4" width="40" height="40"/>
<rect x="303" y="161" fill="#FEFBF7" width="40" height="40"/>
<rect x="303" y="209" fill="#C9E7D6" width="40" height="40"/>
<rect x="351" y="17" fill="#FDD5D3" width="40" height="40"/>
<rect x="351" y="65" fill="#CCD2DD" width="40" height="40"/>
<rect x="351" y="113" fill="#FFF0D3" width="40" height="40"/>
<rect x="351" y="161" fill="#FEFCF9" width="40" height="40"/>
<rect x="351" y="209" fill="#D6EDE0" width="40" height="40"/>
<rect x="399" y="17" fill="#FEE3E1" width="40" height="40"/>
<rect x="399" y="65" fill="#DDE1E9" width="40" height="40"/>
<rect x="399" y="113" fill="#FFF5E2" width="40" height="40"/>
<rect x="399" y="161" fill="#FEFDFB" width="40" height="40"/>
<rect x="399" y="209" fill="#E4F3EB" width="40" height="40"/>
<rect x="447" y="17" fill="#FEF1F0" width="40" height="40"/>
<rect x="447" y="65" fill="#EEF0F4" width="40" height="40"/>
<rect x="447" y="113" fill="#FFFAF0" width="40" height="40"/>
<rect x="447" y="161" fill="#FFFEFD" width="40" height="40"/>
<rect x="447" y="209" fill="#F1F9F5" width="40" height="40"/>
<rect x="15" y="298" fill="#F25270" width="40" height="40"/>
<rect x="15" y="346" fill="#8C3253" width="40" height="40"/>
<rect x="15" y="394" fill="#262240" width="40" height="40"/>
<rect x="15" y="442" fill="#F2EDD5" width="40" height="40"/>
<rect x="15" y="490" fill="#F26B5E" width="40" height="40"/>
<rect x="63" y="298" fill="#F3637E" width="40" height="40"/>
<rect x="63" y="346" fill="#974664" width="40" height="40"/>
<rect x="63" y="394" fill="#3C3853" width="40" height="40"/>
<rect x="63" y="442" fill="#F3EFD9" width="40" height="40"/>
<rect x="63" y="490" fill="#F37A6E" width="40" height="40"/>
<rect x="111" y="298" fill="#F5758D" width="40" height="40"/>
<rect x="111" y="346" fill="#A35B75" width="40" height="40"/>
<rect x="111" y="394" fill="#514E66" width="40" height="40"/>
<rect x="111" y="442" fill="#F5F1DD" width="40" height="40"/>
<rect x="111" y="490" fill="#F5897E" width="40" height="40"/>
<rect x="159" y="298" fill="#F6869B" width="40" height="40"/>
<rect x="159" y="346" fill="#AE6F87" width="40" height="40"/>
<rect x="159" y="394" fill="#676479" width="40" height="40"/>
<rect x="159" y="442" fill="#F6F2E2" width="40" height="40"/>
<rect x="159" y="490" fill="#F6978E" width="40" height="40"/>
<rect x="207" y="298" fill="#F797A9" width="40" height="40"/>
<rect x="207" y="346" fill="#BA8498" width="40" height="40"/>
<rect x="207" y="394" fill="#7D7A8C" width="40" height="40"/>
<rect x="207" y="442" fill="#F7F4E6" width="40" height="40"/>
<rect x="207" y="490" fill="#F7A69E" width="40" height="40"/>
<rect x="255" y="298" fill="#F8A8B7" width="40" height="40"/>
<rect x="255" y="346" fill="#C598A9" width="40" height="40"/>
<rect x="255" y="394" fill="#92909F" width="40" height="40"/>
<rect x="255" y="442" fill="#F8F6EA" width="40" height="40"/>
<rect x="255" y="490" fill="#F8B5AE" width="40" height="40"/>
<rect x="303" y="298" fill="#FABAC6" width="40" height="40"/>
<rect x="303" y="346" fill="#D1ADBA" width="40" height="40"/>
<rect x="303" y="394" fill="#A8A7B3" width="40" height="40"/>
<rect x="303" y="442" fill="#FAF8EE" width="40" height="40"/>
<rect x="303" y="490" fill="#FAC4BF" width="40" height="40"/>
<rect x="351" y="298" fill="#FBCBD4" width="40" height="40"/>
<rect x="351" y="346" fill="#DCC1CB" width="40" height="40"/>
<rect x="351" y="394" fill="#BEBDC6" width="40" height="40"/>
<rect x="351" y="442" fill="#FBFAF2" width="40" height="40"/>
<rect x="351" y="490" fill="#FBD3CF" width="40" height="40"/>
<rect x="399" y="298" fill="#FCDCE2" width="40" height="40"/>
<rect x="399" y="346" fill="#E8D6DD" width="40" height="40"/>
<rect x="399" y="394" fill="#D4D3D9" width="40" height="40"/>
<rect x="399" y="442" fill="#FCFBF7" width="40" height="40"/>
<rect x="399" y="490" fill="#FCE1DF" width="40" height="40"/>
<rect x="447" y="298" fill="#FEEEF1" width="40" height="40"/>
<rect x="447" y="346" fill="#F3EAEE" width="40" height="40"/>
<rect x="447" y="394" fill="#E9E9EC" width="40" height="40"/>
<rect x="447" y="442" fill="#FEFDFB" width="40" height="40"/>
<rect x="447" y="490" fill="#FEF0EF" width="40" height="40"/>
<rect x="15" y="575" fill="#8F9B6F" width="40" height="40"/>
<rect x="15" y="623" fill="#246B73" width="40" height="40"/>
<rect x="15" y="671" fill="#B3BF88" width="40" height="40"/>
<rect x="15" y="719" fill="#272C47" width="40" height="40"/>
<rect x="15" y="767" fill="#C5B790" width="40" height="40"/>
<rect x="63" y="575" fill="#9AA57D" width="40" height="40"/>
<rect x="63" y="623" fill="#3A7A81" width="40" height="40"/>
<rect x="63" y="671" fill="#BBC594" width="40" height="40"/>
<rect x="63" y="719" fill="#3D4159" width="40" height="40"/>
<rect x="63" y="767" fill="#CBBE9B" width="40" height="40"/>
<rect x="111" y="575" fill="#A5AF8C" width="40" height="40"/>
<rect x="111" y="623" fill="#50898F" width="40" height="40"/>
<rect x="111" y="671" fill="#C2CCA0" width="40" height="40"/>
<rect x="111" y="719" fill="#52566C" width="40" height="40"/>
<rect x="111" y="767" fill="#D1C5A6" width="40" height="40"/>
<rect x="159" y="575" fill="#B1B99A" width="40" height="40"/>
<rect x="159" y="623" fill="#66979D" width="40" height="40"/>
<rect x="159" y="671" fill="#CAD2AC" width="40" height="40"/>
<rect x="159" y="719" fill="#686B7E" width="40" height="40"/>
<rect x="159" y="767" fill="#D6CDB1" width="40" height="40"/>
<rect x="207" y="575" fill="#BCC3A9" width="40" height="40"/>
<rect x="207" y="623" fill="#7CA6AB" width="40" height="40"/>
<rect x="207" y="671" fill="#D1D9B8" width="40" height="40"/>
<rect x="207" y="719" fill="#7D8091" width="40" height="40"/>
<rect x="207" y="767" fill="#DCD4BC" width="40" height="40"/>
<rect x="255" y="575" fill="#C7CDB7" width="40" height="40"/>
<rect x="255" y="623" fill="#91B5B9" width="40" height="40"/>
<rect x="255" y="671" fill="#D9DFC3" width="40" height="40"/>
<rect x="255" y="719" fill="#9395A3" width="40" height="40"/>
<rect x="255" y="767" fill="#E2DBC7" width="40" height="40"/>
<rect x="303" y="575" fill="#D2D7C5" width="40" height="40"/>
<rect x="303" y="623" fill="#A7C4C7" width="40" height="40"/>
<rect x="303" y="671" fill="#E1E5CF" width="40" height="40"/>
<rect x="303" y="719" fill="#A9ABB5" width="40" height="40"/>
<rect x="303" y="767" fill="#E8E2D3" width="40" height="40"/>
<rect x="351" y="575" fill="#DDE1D4" width="40" height="40"/>
<rect x="351" y="623" fill="#BDD3D5" width="40" height="40"/>
<rect x="351" y="671" fill="#E8ECDB" width="40" height="40"/>
<rect x="351" y="719" fill="#BEC0C8" width="40" height="40"/>
<rect x="351" y="767" fill="#EEE9DE" width="40" height="40"/>
<rect x="399" y="575" fill="#E9EBE2" width="40" height="40"/>
<rect x="399" y="623" fill="#D3E1E3" width="40" height="40"/>
<rect x="399" y="671" fill="#F0F2E7" width="40" height="40"/>
<rect x="399" y="719" fill="#D4D5DA" width="40" height="40"/>
<rect x="399" y="767" fill="#F3F1E9" width="40" height="40"/>
<rect x="447" y="575" fill="#F4F5F1" width="40" height="40"/>
<rect x="447" y="623" fill="#E9F0F1" width="40" height="40"/>
<rect x="447" y="671" fill="#F7F9F3" width="40" height="40"/>
<rect x="447" y="719" fill="#E9EAED" width="40" height="40"/>
<rect x="447" y="767" fill="#F9F8F4" width="40" height="40"/>
<rect x="15" y="868" fill="#B4D3C3" width="40" height="40"/>
<rect x="15" y="916" fill="#E8E6D9" width="40" height="40"/>
<rect x="15" y="964" fill="#F3EFE3" width="40" height="40"/>
<rect x="15" y="1012" fill="#7F819A" width="40" height="40"/>
<rect x="63" y="868" fill="#BBD7C9" width="40" height="40"/>
<rect x="63" y="916" fill="#EAE8DD" width="40" height="40"/>
<rect x="63" y="964" fill="#F4F1E6" width="40" height="40"/>
<rect x="63" y="1012" fill="#8C8EA4" width="40" height="40"/>
<rect x="111" y="868" fill="#C3DCCF" width="40" height="40"/>
<rect x="111" y="916" fill="#EDEBE1" width="40" height="40"/>
<rect x="111" y="964" fill="#F5F2E9" width="40" height="40"/>
<rect x="111" y="1012" fill="#999AAE" width="40" height="40"/>
<rect x="159" y="868" fill="#CAE0D5" width="40" height="40"/>
<rect x="159" y="916" fill="#EFEDE4" width="40" height="40"/>
<rect x="159" y="964" fill="#F7F4EB" width="40" height="40"/>
<rect x="159" y="1012" fill="#A5A7B8" width="40" height="40"/>
<rect x="207" y="868" fill="#D2E5DB" width="40" height="40"/>
<rect x="207" y="916" fill="#F1F0E8" width="40" height="40"/>
<rect x="207" y="964" fill="#F8F5EE" width="40" height="40"/>
<rect x="207" y="1012" fill="#B2B3C2" width="40" height="40"/>
<rect x="255" y="868" fill="#D9E9E1" width="40" height="40"/>
<rect x="255" y="916" fill="#F3F2EC" width="40" height="40"/>
<rect x="255" y="964" fill="#F9F7F1" width="40" height="40"/>
<rect x="255" y="1012" fill="#BFC0CC" width="40" height="40"/>
<rect x="303" y="868" fill="#E1EDE7" width="40" height="40"/>
<rect x="303" y="916" fill="#F6F5F0" width="40" height="40"/>
<rect x="303" y="964" fill="#FAF9F4" width="40" height="40"/>
<rect x="303" y="1012" fill="#CCCDD7" width="40" height="40"/>
<rect x="351" y="868" fill="#E8F2ED" width="40" height="40"/>
<rect x="351" y="916" fill="#F8F7F4" width="40" height="40"/>
<rect x="351" y="964" fill="#FBFAF7" width="40" height="40"/>
<rect x="351" y="1012" fill="#D9D9E1" width="40" height="40"/>
<rect x="399" y="868" fill="#F0F6F3" width="40" height="40"/>
<rect x="399" y="916" fill="#FAFAF7" width="40" height="40"/>
<rect x="399" y="964" fill="#FDFCF9" width="40" height="40"/>
<rect x="399" y="1012" fill="#E5E6EB" width="40" height="40"/>
<rect x="447" y="868" fill="#F7FBF9" width="40" height="40"/>
<rect x="447" y="916" fill="#FDFCFB" width="40" height="40"/>
<rect x="447" y="964" fill="#FEFDFC" width="40" height="40"/>
<rect x="447" y="1012" fill="#F2F2F5" width="40" height="40"/>
</svg>
